<?xml version="1.0" encoding="utf-8"?>
<!-- Generator: Adobe Illustrator 24.0.0, SVG Export Plug-In . SVG Version: 6.00 Build 0)  -->
<svg version="1.1" id="Layer_1" xmlns="http://www.w3.org/2000/svg" xmlns:xlink="http://www.w3.org/1999/xlink" x="0px" y="0px"
	 viewBox="0 0 1366 768" style="enable-background:new 0 0 1366 768;" xml:space="preserve">
<g>
	<g>
		<path d="M436.44,349.33c-9.44-8.9-21.41-13.27-36.22-13.27h-30.28h-7.64l-5.47,9.17l-33.12,55.66l-38.62-64.84h-7.74v95.85h10.01
			l-0.3-74.27L320.31,413h6.77l13.91-23.28l19.08-31.95l7.5-12.54h32.65c11.71,0,21.45,3.54,28.92,10.71
			c7.47,7.2,11.27,16.21,11.27,27.35c0,11.54-3.8,20.98-11.27,28.45c-7.47,7.34-17.21,11.01-28.92,11.01h-23.25v-51.03h-10.01v60.2
			h33.25c14.81,0,26.91-4.54,36.39-13.54c9.44-9.17,14.07-20.84,14.07-35.09C450.68,369.48,445.87,358.2,436.44,349.33z"/>
		<path d="M357.36,503.05c-65.77,0-119.1-53.3-119.1-119.07c0-65.77,53.33-119.1,119.1-119.1c48.69,0,90.58,29.28,108.99,71.17
			h10.84c-19.08-47.53-65.6-81.14-119.87-81.14c-71.17,0-129.07,57.9-129.07,129.07c0,71.17,57.9,129.1,129.07,129.1
			c54.26,0,100.82-33.65,119.87-81.18h-10.84C447.94,473.8,406.05,503.05,357.36,503.05z"/>
	</g>
	<g>
		<path d="M567.94,370.79h-7.68v-37.52l-16.96,27.84h-4.88l-17.12-28.08l0.16,37.76h-7.68v-54.4h5.6l21.44,35.28l21.44-35.28h5.68
			V370.79z"/>
		<path d="M591.16,356.79l-6.08,14h-8.16l24.24-54.72h7.2l24.24,54.72h-8.16l-6.08-14H591.16z M604.76,325.27l-10.56,24.48h21.12
			L604.76,325.27z"/>
		<path d="M685.01,347.19c0,7.44-2.16,13.44-6.48,18c-4.32,4.56-10,6.8-17.12,6.8c-7.12,0-12.8-2.24-17.12-6.8
			c-4.32-4.56-6.48-10.56-6.48-18v-30.8h7.6v30.8c0,5.2,1.44,9.44,4.4,12.72c2.96,3.28,6.88,4.96,11.6,4.96
			c4.72,0,8.56-1.68,11.52-4.96c2.96-3.28,4.48-7.52,4.48-12.72v-30.8h7.6V347.19z"/>
		<path d="M705.58,351.99v18.8h-7.6v-54.4h21.28c6.16,0,11.2,1.68,15.04,4.88c3.92,3.28,5.84,7.52,5.84,12.88
			c0,8.56-5.28,14.72-13.68,16.96l16.48,19.68h-9.36l-15.84-18.8H705.58z M719.02,344.95c7.92,0,13.6-4.16,13.6-10.8
			c0-3.28-1.28-5.84-3.84-7.76c-2.56-2-5.84-2.96-9.76-2.96h-13.44v21.52H719.02z"/>
		<path d="M759.11,340.31h27.84v7.04h-27.84v16.4h31.04v7.04h-38.64v-54.4h38.64v7.04h-31.04V340.31z"/>
		<path d="M809.13,340.31h27.84v7.04h-27.84v16.4h31.04v7.04h-38.64v-54.4h38.64v7.04h-31.04V340.31z"/>
		<path d="M898.66,370.79h-6.24l-33.28-40.32v40.32h-7.6v-54.4h6l33.44,40.96v-40.96h7.68V370.79z"/>
		<path d="M953.47,316.39c8.4,0,15.28,2.56,20.64,7.6c5.44,5.04,8.16,11.52,8.16,19.28c0,8-2.72,14.56-8.16,19.76
			c-5.36,5.2-12.24,7.76-20.64,7.76h-19.68v-54.4H953.47z M953.47,363.75c6,0,11.04-1.92,14.96-5.76c4-3.92,6-8.8,6-14.72
			c0-5.68-2-10.4-6-14.16c-3.92-3.76-8.96-5.68-14.96-5.68h-12.08v40.32H953.47z"/>
		<path d="M1039.4,347.19c0,7.44-2.16,13.44-6.48,18s-10,6.8-17.12,6.8c-7.12,0-12.8-2.24-17.12-6.8c-4.32-4.56-6.48-10.56-6.48-18
			v-30.8h7.6v30.8c0,5.2,1.44,9.44,4.4,12.72c2.96,3.28,6.88,4.96,11.6,4.96c4.72,0,8.56-1.68,11.52-4.96
			c2.96-3.28,4.48-7.52,4.48-12.72v-30.8h7.6V347.19z"/>
		<path d="M1059.98,341.75h26.96v7.04h-26.96v22h-7.6v-54.4h38v7.04h-30.4V341.75z"/>
		<path d="M1107.35,341.75h26.96v7.04h-26.96v22h-7.6v-54.4h38v7.04h-30.4V341.75z"/>
		<path d="M558.34,430.73h7.84c-1.28,6.32-4.32,11.44-9.04,15.36c-4.72,3.92-10.4,5.84-17.04,5.84c-7.92,0-14.56-2.72-20.08-8.16
			c-5.52-5.44-8.24-12.16-8.24-20.16c0-8,2.72-14.72,8.24-20.16c5.52-5.44,12.16-8.16,20.08-8.16c6.64,0,12.32,1.92,17.04,5.84
			c4.72,3.92,7.76,9.04,9.04,15.36h-7.84c-2.24-8.64-8.96-13.84-18.24-13.84c-5.84,0-10.8,2-14.72,6
			c-3.92,3.92-5.92,8.96-5.92,14.96s2,11.04,5.92,15.04c3.92,3.92,8.88,5.92,14.72,5.92C549.38,444.57,556.11,439.37,558.34,430.73z
			"/>
		<path d="M591.72,436.81l-6.08,14h-8.16l24.24-54.72h7.2l24.24,54.72H625l-6.08-14H591.72z M605.32,405.29l-10.56,24.48h21.12
			L605.32,405.29z"/>
		<path d="M682.29,399.37c4.08,2.72,6.48,6.88,7.12,12.48h-7.6c-1.2-6.72-5.68-10.08-13.6-10.08c-7.36,0-12.24,3.6-12.24,9.12
			c0,4.32,3.36,6.96,10,8.32l7.6,1.52c10.32,2.08,15.68,6.48,15.68,14.48c0,5.04-1.92,9.04-5.68,12.16
			c-3.76,3.04-8.8,4.56-14.96,4.56c-13.2,0-22-6.96-23.04-18.72h7.6c1.2,7.6,6.8,11.92,15.84,11.92c7.68,0,12.4-3.52,12.4-8.96
			c0-4.24-3.04-6.88-9.12-8.08l-9.2-1.76c-10.16-1.92-15.2-6.88-15.2-14.88c0-4.88,1.84-8.8,5.44-11.76c3.6-2.96,8.4-4.48,14.4-4.48
			C673.41,395.21,678.21,396.57,682.29,399.37z"/>
		<path d="M729.11,403.45v47.36h-7.6v-47.36h-19.6v-7.04h46.8v7.04H729.11z"/>
		<path d="M772.64,450.81h-7.6v-54.4h7.6V450.81z"/>
		<path d="M841.52,450.81h-6.24L802,410.49v40.32h-7.6v-54.4h6l33.44,40.96v-40.96h7.68V450.81z"/>
		<path d="M916.18,450.81h-6.08l-0.56-10c-4.16,7.44-10.88,11.12-20.08,11.12c-8,0-14.72-2.72-20.08-8.16
			c-5.36-5.44-8.08-12-8.08-19.68c0-8.24,2.72-15.12,8.24-20.56c5.52-5.52,12.32-8.24,20.32-8.24c6.16,0,11.6,1.76,16.48,5.2
			c4.88,3.44,8,8.16,9.52,14.24h-8.16c-1.36-4.08-3.68-7.04-6.96-9.04c-3.28-2-6.88-3.04-10.8-3.04c-6,0-10.96,2-14.96,6
			c-4,4-6,9.12-6,15.44c0,5.68,1.92,10.48,5.76,14.48c3.92,4,8.8,6,14.72,6c9.92,0,16.72-6.32,18.56-15.84H888.9v-7.04h27.28v1.92
			V450.81z"/>
	</g>
</g>
</svg>
